<svg width="40" height="40" viewBox="0 0 40 40" fill="none" xmlns="http://www.w3.org/2000/svg">
<rect width="40" height="40" rx="3" fill="#039BE5"/>
<path d="M17.3968 26.21C16.8965 26.21 16.9715 26.0224 16.7964 25.5346L15.3081 20.6319L26.777 13.8281" fill="#C8DAEA"/>
<path d="M17.3984 26.2101C17.7862 26.2101 17.9613 26.035 18.1864 25.8224L20.275 23.7963L17.6736 22.2329" fill="#A9C9DD"/>
<path d="M17.6602 22.2203L23.9636 26.8728C24.6765 27.2731 25.2018 27.0604 25.3769 26.21L27.9408 14.1283C28.2035 13.0777 27.5406 12.6024 26.8527 12.9151L11.7944 18.7183C10.7688 19.131 10.7688 19.7064 11.6068 19.9565L15.4714 21.1572L24.4139 15.5165C24.8391 15.2664 25.2268 15.404 24.9017 15.6791" fill="url(#paint0_linear_47_1239)"/>
<defs>
<linearGradient id="paint0_linear_47_1239" x1="21.3643" y1="19.4447" x2="23.8048" y2="25.001" gradientUnits="userSpaceOnUse">
<stop stop-color="#EFF7FC"/>
<stop offset="1" stop-color="white"/>
</linearGradient>
</defs>
</svg>
