<svg width="40" height="40" viewBox="0 0 40 40" fill="none" xmlns="http://www.w3.org/2000/svg">
<rect width="40" height="40" rx="3" fill="#F58220"/>
<path d="M24.4788 20.0999C24.1788 20.1999 23.8788 20.2999 23.6788 20.4999C21.1788 22.1999 17.8788 22.0999 15.3788 20.3999C15.2788 20.2999 15.0788 20.1999 14.9788 20.1999C14.2788 19.8999 13.6788 19.9999 13.2788 20.5999C12.8788 21.1999 12.8788 21.8999 13.4788 22.3999C13.6788 22.4999 13.7788 22.6999 13.9788 22.7999C15.2788 23.7999 16.7788 24.1999 18.4788 24.3999C18.3788 24.4999 18.2788 24.5999 18.1788 24.6999C16.9788 25.9999 15.7788 27.2999 14.4788 28.4999C14.1788 28.7999 14.0788 29.0999 14.0788 29.3999C14.0788 29.9999 14.3788 30.4999 14.9788 30.7999C15.4788 31.0999 15.9788 30.9999 16.4788 30.4999C17.4788 29.4999 18.3788 28.5999 19.3788 27.5999C19.6788 27.2999 19.7788 27.2999 19.9788 27.5999C20.8788 28.5999 21.8788 29.4999 22.8788 30.4999C23.1788 30.7999 23.4788 30.8999 23.7788 30.8999C24.3788 30.8999 24.9788 30.5999 25.1788 29.9999C25.3788 29.4999 25.2788 28.8999 24.8788 28.4999C23.5788 27.1999 22.2788 25.8999 21.0788 24.6999C20.9788 24.5999 20.8788 24.4999 20.7788 24.3999C21.6788 24.2999 22.6788 24.0999 23.5788 23.7999C24.4788 23.3999 25.3788 22.8999 25.9788 22.1999C26.3788 21.6999 26.3788 21.1999 25.9788 20.5999C25.5788 20.1999 25.0788 19.9999 24.4788 20.0999Z" fill="white"/>
<path d="M19.5786 20.1C22.6786 20.1 25.1786 17.6 25.1786 14.6C25.2786 11.5 22.7786 9 19.6786 9C16.5786 9 14.0786 11.5 14.0786 14.5C14.0786 17.6 16.5786 20.1 19.5786 20.1ZM19.6786 11.8C21.1786 11.8 22.3786 13 22.3786 14.5C22.3786 16 21.1786 17.2 19.6786 17.2C18.1786 17.3 16.9786 16.1 16.9786 14.6C16.8786 13.1 18.1786 11.8 19.6786 11.8Z" fill="white"/>
</svg>
