<svg width="40" height="40" viewBox="0 0 40 40" fill="none" xmlns="http://www.w3.org/2000/svg">
<rect width="40" height="40" rx="3" fill="#4D76A1"/>
<g clip-path="url(#clip0_47_1229)">
<path fill-rule="evenodd" clip-rule="evenodd" d="M20 26.7H21.3C21.3 26.7 21.7 26.7 21.9 26.4C22.1 26.2 22.1 25.8 22.1 25.8C22.1 25.8 22.1 24 22.9 23.7C23.7 23.4 24.8 25.4 25.9 26.2C26.7 26.8 27.4 26.7 27.4 26.7H30.4C30.4 26.7 32 26.6 31.2 25.4C31.1 25.3 30.8 24.5 29 22.8C27.1 21.1 27.4 21.3 29.6 18.3C31 16.5 31.5 15.4 31.4 14.9C31.2 14.4 30.2 14.6 30.2 14.6H26.8C26.8 14.6 26.6 14.6 26.4 14.7C26.2 14.8 26.1 15 26.1 15C26.1 15 25.6 16.4 24.9 17.6C23.4 20.1 22.8 20.3 22.6 20.1C22 19.7 22.2 18.6 22.2 17.8C22.2 15.3 22.6 14.3 21.5 14C21 14.1 20.7 14 19.8 14C18.6 14 17.6 14 17 14.3C16.6 14.5 16.3 14.9 16.5 14.9C16.7 14.9 17.2 15 17.5 15.4C17.8 15.9 17.8 16.9 17.8 16.9C17.8 16.9 18 19.8 17.3 20.2C16.9 20.4 16.3 19.9 14.9 17.6C14.2 16.5 13.7 15.1 13.7 15.1C13.7 15.1 13.6 14.9 13.4 14.8C13.2 14.6 12.9 14.6 12.9 14.6H9.70002C9.70002 14.6 9.20002 14.6 9.00002 14.8C8.80002 15 9.00002 15.4 9.00002 15.4C9.00002 15.4 11.5 21.2 14.3 24.2C17 26.9 20 26.7 20 26.7Z" fill="white"/>
</g>
<defs>
<clipPath id="clip0_47_1229">
<rect width="22.4" height="12.7" fill="white" transform="translate(9 14)"/>
</clipPath>
</defs>
</svg>
