<svg width="40" height="40" viewBox="0 0 40 40" fill="none" xmlns="http://www.w3.org/2000/svg">
<rect width="40" height="40" rx="3" fill="#55ACEE"/>
<path d="M31 14C30.2 14.3 29.4 14.6 28.5 14.7C29.4 14.2 30.1 13.3 30.4 12.3C29.6 12.8 28.6 13.1 27.7 13.3C26.9 12.5 25.8 12 24.5 12C22.1 12 20.2 13.9 20.2 16.3C20.2 16.6 20.2 17 20.3 17.3C16.8 17.1 13.6 15.4 11.5 12.8C11.1 13.4 10.9 14.2 10.9 14.9C10.9 16.4 11.7 17.7 12.8 18.5C12.1 18.5 11.4 18.3 10.8 18C10.8 18 10.8 18 10.8 18.1C10.8 20.2 12.3 21.9 14.3 22.3C13.9 22.4 13.6 22.5 13.2 22.5C12.9 22.5 12.7 22.5 12.4 22.4C12.9 24.1 14.5 25.3 16.4 25.4C14.9 26.5 13 27.2 11 27.2C10.7 27.2 10.3 27.2 10 27.1C11.9 28.3 14.2 29 16.6 29C24.5 29 28.9 22.5 28.9 16.8C28.9 16.6 28.9 16.4 28.9 16.2C29.7 15.6 30.4 14.9 31 14Z" fill="white"/>
</svg>
