<svg width="19" height="11" viewBox="0 0 19 11" fill="none" xmlns="http://www.w3.org/2000/svg">
<path fill-rule="evenodd" clip-rule="evenodd" d="M8.74444 10.2H9.84445C9.84445 10.2 10.1444 10.2 10.3444 10C10.5444 9.8 10.4444 9.5 10.4444 9.5C10.4444 9.5 10.4444 8.1 11.1444 7.8C11.8444 7.6 12.6444 9.2 13.5444 9.8C14.2444 10.3 14.7444 10.2 14.7444 10.2H17.1444C17.1444 10.2 18.4444 10.1 17.8444 9.1C17.8444 9 17.5444 8.4 16.0444 7C14.5444 5.6 14.7444 5.8 16.5444 3.4C17.6444 1.9 18.1444 1 17.9444 0.6C17.8444 0.2 17.0444 0.3 17.0444 0.3H14.3444C14.3444 0.3 14.1444 0.300001 13.9444 0.400001C13.8444 0.500001 13.7444 0.700001 13.7444 0.700001C13.7444 0.700001 13.3444 1.8 12.7444 2.8C11.5444 4.8 11.0444 5 10.8444 4.8C10.3444 4.6 10.5444 3.8 10.5444 3.1C10.5444 1.1 10.8444 0.3 9.94445 0.1C9.64445 3.7998e-07 9.44444 0 8.64444 0C7.64444 0 6.84445 7.59959e-07 6.34445 0.200001C6.04445 0.400001 5.84445 0.700001 5.94445 0.700001C6.14445 0.700001 6.54444 0.8 6.74444 1.1C7.04444 1.5 7.04444 2.3 7.04444 2.3C7.04444 2.3 7.24444 4.6 6.64444 4.9C6.24444 5.1 5.74444 4.7 4.74444 2.8C4.14444 1.8 3.74444 0.8 3.74444 0.8C3.74444 0.8 3.64444 0.6 3.54444 0.5C3.34444 0.4 3.14444 0.3 3.14444 0.3H0.544444C0.544444 0.3 0.144444 0.3 0.0444444 0.5C-0.0555556 0.6 0.0444444 1 0.0444444 1C0.0444444 1 2.04445 5.7 4.34445 8.1C6.44445 10.3 8.74444 10.2 8.74444 10.2Z" fill="#0E1322"/>
</svg>
