<svg width="22" height="12" viewBox="0 0 22 12" fill="none" xmlns="http://www.w3.org/2000/svg">
<path fill-rule="evenodd" clip-rule="evenodd" d="M10.7003 11.9904H11.9835C11.9835 11.9904 12.3334 11.9904 12.5667 11.7553C12.8 11.5202 12.6834 11.1675 12.6834 11.1675C12.6834 11.1675 12.6834 9.52179 13.4999 9.16913C14.3165 8.93403 15.2497 10.8149 16.2995 11.5202C17.1161 12.108 17.6993 11.9904 17.6993 11.9904H20.4989C20.4989 11.9904 22.0154 11.8729 21.3155 10.6973C21.3155 10.5798 20.9655 9.87445 19.2158 8.22871C17.466 6.58297 17.6993 6.81807 19.799 3.9968C21.0822 2.23351 21.6654 1.17553 21.4321 0.705318C21.3155 0.235106 20.3823 0.352659 20.3823 0.352659H17.2327C17.2327 0.352659 16.9994 0.35266 16.7661 0.470213C16.6495 0.587766 16.5328 0.822872 16.5328 0.822872C16.5328 0.822872 16.0662 2.11595 15.3663 3.29148C13.9665 5.64254 13.3833 5.87765 13.15 5.64254C12.5667 5.40744 12.8 4.46701 12.8 3.64414C12.8 1.29308 13.15 0.352659 12.1001 0.117553C11.7502 4.46677e-07 11.5169 0 10.5837 0C9.4172 0 8.48401 8.93355e-07 7.90077 0.235107C7.55082 0.470213 7.31752 0.822872 7.43417 0.822872C7.66747 0.822872 8.13406 0.940424 8.36736 1.29308C8.71731 1.7633 8.71731 2.70372 8.71731 2.70372C8.71731 2.70372 8.95061 5.40744 8.25071 5.7601C7.78411 5.9952 7.20086 5.52499 6.03437 3.29148C5.33447 2.11595 4.86787 0.940424 4.86787 0.940424C4.86787 0.940424 4.75123 0.705318 4.63458 0.587765C4.40128 0.470212 4.16798 0.352659 4.16798 0.352659H1.13509C1.13509 0.352659 0.668494 0.352659 0.551844 0.587765C0.435195 0.705318 0.551844 1.17553 0.551844 1.17553C0.551844 1.17553 2.88484 6.70052 5.56778 9.52179C8.01742 12.108 10.7003 11.9904 10.7003 11.9904Z" fill="#7A7E8C"/>
</svg>
