<svg width="268" height="42" viewBox="0 0 268 42" fill="none" xmlns="http://www.w3.org/2000/svg">
<g clip-path="url(#clip0_14_170)">
<path d="M94.9252 8.26845H89.5V5.68871H103.39V8.26845H97.9651V22.1053H94.9252V8.26845ZM115.854 15.9141C115.854 16.1173 115.839 16.4066 115.807 16.7818H106.009C106.181 17.7043 106.629 18.4352 107.354 18.9746C108.079 19.5142 108.979 19.7836 110.055 19.7836C111.427 19.7836 112.557 19.3303 113.445 18.4234L115.013 20.2292C114.451 20.9014 113.742 21.4098 112.884 21.7537C112.027 22.0974 111.06 22.2695 109.985 22.2695C108.613 22.2695 107.404 21.9961 106.36 21.4487C105.316 20.9016 104.509 20.1393 103.94 19.1624C103.371 18.1851 103.086 17.0793 103.086 15.8439C103.086 14.6243 103.363 13.526 103.916 12.5489C104.47 11.5713 105.238 10.8092 106.22 10.2623C107.202 9.71521 108.309 9.44154 109.54 9.44154C110.756 9.44154 111.844 9.71136 112.803 10.2505C113.761 10.79 114.51 11.5482 115.048 12.5256C115.586 13.5027 115.854 14.6323 115.854 15.9143V15.9141ZM109.54 11.7866C108.605 11.7866 107.814 12.0639 107.167 12.6189C106.52 13.1737 106.126 13.9128 105.986 14.8353H113.071C112.947 13.9284 112.564 13.1937 111.925 12.6307C111.286 12.0679 110.491 11.7866 109.54 11.7866H109.54ZM124.39 22.2695C123.096 22.2695 121.934 21.9961 120.905 21.4487C119.877 20.9016 119.073 20.1393 118.497 19.1624C117.92 18.1851 117.632 17.0793 117.632 15.8439C117.632 14.6087 117.92 13.5065 118.497 12.5369C119.073 11.5675 119.873 10.8092 120.894 10.2621C121.915 9.71498 123.08 9.44131 124.39 9.44131C125.621 9.44131 126.701 9.69165 127.628 10.1916C128.556 10.6921 129.254 11.4114 129.721 12.3495L127.476 13.6629C127.118 13.0845 126.67 12.6504 126.132 12.3611C125.594 12.0718 125.005 11.9273 124.366 11.9273C123.275 11.9273 122.37 12.2829 121.654 12.9945C120.936 13.7057 120.578 14.6556 120.578 15.8439C120.578 17.0321 120.932 17.9818 121.642 18.6934C122.351 19.4046 123.259 19.7603 124.366 19.7603C125.005 19.7603 125.594 19.6157 126.132 19.3264C126.67 19.0371 127.118 18.6033 127.476 18.0251L129.721 19.3384C129.238 20.2766 128.533 20.9995 127.605 21.5074C126.677 22.0158 125.606 22.2695 124.39 22.2695ZM139.215 9.44131C140.79 9.44131 142.053 9.90257 143.004 10.8251C143.955 11.7476 144.43 13.1153 144.43 14.9291V22.1055H141.507V15.3045C141.507 14.21 141.25 13.3851 140.736 12.8301C140.221 12.275 139.489 11.9975 138.537 11.9975C137.462 11.9975 136.612 12.3221 135.989 12.9707C135.365 13.6196 135.053 14.5539 135.053 15.7734V22.1055H132.13V4.7039H135.053V11.0362C135.536 10.5199 136.133 10.1255 136.842 9.85159C137.551 9.57792 138.343 9.44131 139.215 9.44131ZM155.234 9.44131C156.809 9.44131 158.071 9.90257 159.022 10.8251C159.974 11.7476 160.449 13.1153 160.449 14.9291V22.1055H157.526V15.3045C157.526 14.21 157.268 13.3851 156.754 12.8301C156.24 12.275 155.507 11.9975 154.556 11.9975C153.48 11.9975 152.631 12.3221 152.007 12.9707C151.384 13.6196 151.072 14.5539 151.072 15.7734V22.1055H148.148V9.582H150.931V11.2005C151.414 10.6221 152.022 10.1844 152.755 9.88716C153.488 9.58992 154.314 9.44154 155.234 9.44154V9.44131ZM164.167 9.58177H167.09V22.1053H164.167V9.58177ZM165.64 7.51812C165.11 7.51812 164.666 7.35001 164.307 7.01359C163.949 6.67784 163.77 6.25917 163.77 5.75917C163.77 5.25872 163.949 4.84028 164.307 4.50453C164.666 4.16833 165.11 4 165.64 4C166.171 4 166.615 4.1604 166.973 4.48097C167.332 4.80154 167.512 5.20412 167.512 5.68849C167.512 6.2048 167.336 6.63864 166.985 6.99025C166.634 7.34186 166.186 7.51812 165.64 7.51812ZM176.023 16.7349L173.848 18.7988V22.1055H170.925V4.7039H173.848V15.2107L179.905 9.582H183.413L178.198 14.8355L183.904 22.1057H180.349L176.023 16.7354V16.7349Z" fill="#3F4866"/>
<path d="M196.789 22.3321L193.445 17.5244C193.305 17.5401 193.094 17.548 192.814 17.548H189.119V22.3321H186.079V5.91572H192.814C194.232 5.91572 195.468 6.1502 196.52 6.61939C197.572 7.08835 198.379 7.76075 198.94 8.63615C199.501 9.51177 199.782 10.5516 199.782 11.7555C199.782 12.9905 199.482 14.0537 198.882 14.9451C198.282 15.8362 197.42 16.5006 196.298 16.9383L200.063 22.3323H196.789V22.3321ZM196.719 11.7553C196.719 10.708 196.376 9.9028 195.69 9.33959C195.004 8.77706 193.998 8.49546 192.673 8.49546H189.119V15.0385H192.673C193.998 15.0385 195.004 14.7533 195.69 14.1828C196.376 13.6121 196.719 12.8029 196.719 11.7553ZM207.546 9.66809C209.386 9.66809 210.792 10.1099 211.767 10.9932C212.741 11.8767 213.228 13.2095 213.228 14.9918V22.3323H210.469V20.8081C210.111 21.355 209.6 21.7736 208.937 22.0627C208.275 22.3518 207.476 22.4963 206.54 22.4963C205.605 22.4963 204.786 22.3364 204.085 22.0158C203.383 21.6952 202.842 21.2496 202.459 20.6789C202.078 20.1082 201.887 19.4633 201.887 18.7442C201.887 17.6182 202.304 16.7154 203.138 16.0351C203.972 15.3552 205.285 15.0152 207.078 15.0152H210.305V14.8276C210.305 13.9522 210.044 13.2798 209.522 12.8108C209 12.3416 208.224 12.1071 207.195 12.1071C206.494 12.1071 205.804 12.2163 205.126 12.4352C204.448 12.654 203.875 12.9592 203.407 13.3498L202.261 11.2157C202.916 10.7154 203.703 10.3323 204.623 10.0664C205.543 9.80085 206.517 9.66786 207.546 9.66786L207.546 9.66809ZM207.148 20.3622C207.881 20.3622 208.532 20.1943 209.101 19.8581C209.67 19.5219 210.072 19.0414 210.305 18.4159V16.9619H207.288C205.605 16.9619 204.763 17.517 204.763 18.6271C204.763 19.1588 204.974 19.5808 205.394 19.8933C205.815 20.2061 206.4 20.3622 207.148 20.3622ZM224.476 21.6522C224.133 21.9338 223.716 22.1447 223.225 22.2856C222.734 22.4261 222.216 22.4963 221.67 22.4963C220.298 22.4963 219.238 22.137 218.49 21.4177C217.741 20.6984 217.368 19.6511 217.368 18.275V12.2478H215.309V9.9028H217.368V7.04145H220.291V9.9028H223.635V12.2478H220.291V18.2048C220.291 18.8144 220.438 19.2795 220.735 19.6003C221.031 19.9209 221.46 20.0811 222.021 20.0811C222.676 20.0811 223.221 19.9093 223.658 19.5652L224.476 21.6522ZM226.885 9.80878H229.808V22.3321H226.885V9.80878ZM228.358 7.7449C227.828 7.7449 227.384 7.57702 227.025 7.24059C226.667 6.90462 226.487 6.48618 226.487 5.98595C226.487 5.4855 226.666 5.06729 227.025 4.73131C227.384 4.39511 227.828 4.22701 228.358 4.22701C228.888 4.22701 229.333 4.38718 229.691 4.70798C230.05 5.02855 230.229 5.43113 230.229 5.9155C230.229 6.43158 230.054 6.86542 229.703 7.21703C229.352 7.56887 228.904 7.7449 228.358 7.7449ZM240.728 9.66786C242.303 9.66786 243.566 10.1291 244.517 11.0519C245.468 11.9742 245.943 13.3421 245.943 15.1556V22.3321H243.02V15.531C243.02 14.4365 242.763 13.6119 242.248 13.0566C241.734 12.5018 241.002 12.2243 240.05 12.2243C238.975 12.2243 238.125 12.5489 237.501 13.1975C236.878 13.8464 236.566 14.7807 236.566 16.0002V22.3321H233.643V9.80878H236.426V11.427C236.909 10.8486 237.517 10.411 238.25 10.1137C238.982 9.81671 239.809 9.66809 240.728 9.66809V9.66786ZM262.172 9.80855V20.4324C262.172 24.8414 259.927 27.0462 255.438 27.0462C254.237 27.0462 253.099 26.8937 252.023 26.5885C250.948 26.2838 250.059 25.842 249.358 25.2637L250.667 23.0591C251.213 23.5126 251.902 23.8758 252.737 24.1497C253.571 24.4231 254.416 24.56 255.274 24.56C256.646 24.56 257.651 24.2473 258.29 23.6218C258.929 22.9963 259.249 22.0428 259.249 20.7607V20.1039C258.75 20.6508 258.142 21.0654 257.425 21.347C256.708 21.6284 255.921 21.7689 255.063 21.7689C253.878 21.7689 252.806 21.5149 251.848 21.0068C250.889 20.4988 250.133 19.7836 249.579 18.8611C249.026 17.9386 248.749 16.8831 248.749 15.695C248.749 14.5068 249.026 13.4553 249.579 12.541C250.133 11.6262 250.889 10.9187 251.848 10.4184C252.807 9.9182 253.879 9.66786 255.063 9.66786C255.968 9.66786 256.79 9.81648 257.53 10.1135C258.271 10.4107 258.891 10.8641 259.389 11.4737V9.80878H262.172L262.172 9.80855ZM255.508 19.2832C256.615 19.2832 257.523 18.951 258.232 18.2866C258.941 17.6221 259.296 16.7582 259.296 15.695C259.296 14.6477 258.941 13.7956 258.232 13.1389C257.523 12.4823 256.614 12.154 255.508 12.154C254.385 12.154 253.469 12.4823 252.76 13.1389C252.051 13.7956 251.696 14.6477 251.696 15.695C251.696 16.7582 252.051 17.6221 252.76 18.2866C253.47 18.951 254.385 19.2832 255.508 19.2832Z" fill="#0092E0"/>
<path d="M96.2845 35.0408H93.2853L93.2939 40.1549H92.1876V34.087H96.2931L96.2845 35.0408ZM98.4068 34.087H99.5128V38.3953L102.763 34.087H103.809V40.1549H102.702V35.8555L99.4523 40.1549H98.4068V34.087ZM112.604 39.2012V41.4465H111.567V40.1549H106.925V41.4465H105.879L105.888 39.2012H106.147C106.527 39.1839 106.794 38.9021 106.946 38.3564C107.099 37.8101 107.193 37.0283 107.228 36.0115L107.297 34.087H111.731V39.2012H112.604H112.604ZM108.213 36.1153C108.184 36.9012 108.121 37.5557 108.023 38.0788C107.925 38.6019 107.769 38.976 107.556 39.2012H110.624V35.0405H108.256L108.213 36.1153ZM124.951 34.0868V40.1547H123.845V35.0405H120.707V40.1547H119.601V34.0868H124.951H124.951ZM130.618 40.2415C130.001 40.2415 129.445 40.1071 128.95 39.8384C128.454 39.5698 128.065 39.1971 127.783 38.7204C127.5 38.2433 127.359 37.7105 127.359 37.121C127.359 36.5315 127.5 35.9982 127.783 35.5215C128.065 35.0446 128.454 34.672 128.95 34.403C129.445 34.1346 130.001 34 130.618 34C131.234 34 131.791 34.1346 132.286 34.403C132.781 34.672 133.17 35.043 133.453 35.517C133.735 35.9912 133.876 36.5254 133.876 37.121C133.876 37.7161 133.735 38.2508 133.453 38.7245C133.17 39.1984 132.781 39.5698 132.286 39.8384C131.79 40.1071 131.234 40.2415 130.618 40.2415ZM130.618 39.2535C131.021 39.2535 131.384 39.1622 131.707 38.9803C132.03 38.7981 132.283 38.5439 132.467 38.2177C132.652 37.891 132.744 37.5256 132.744 37.1212C132.744 36.7163 132.652 36.3512 132.467 36.0245C132.283 35.698 132.029 35.4438 131.707 35.2617C131.384 35.0797 131.021 34.9887 130.618 34.9887C130.214 34.9887 129.851 35.0797 129.528 35.2617C129.206 35.4438 128.953 35.698 128.768 36.0245C128.584 36.3509 128.492 36.7163 128.492 37.1212C128.492 37.5256 128.584 37.8908 128.768 38.2177C128.953 38.5439 129.206 38.7981 129.528 38.9803C129.851 39.1622 130.214 39.2535 130.618 39.2535ZM145.04 36.9995C145.426 37.1035 145.72 37.2814 145.921 37.5328C146.123 37.7841 146.224 38.0976 146.224 38.4735C146.224 39.0052 146.028 39.4182 145.636 39.7127C145.244 40.0077 144.677 40.1549 143.934 40.1549H141.064V34.087H143.769C144.449 34.087 144.979 34.2227 145.36 34.4946C145.74 34.766 145.93 35.1502 145.93 35.6475C145.93 35.9653 145.854 36.2397 145.701 36.471C145.548 36.7021 145.328 36.8781 145.04 36.9998L145.04 36.9995ZM142.17 36.6787H143.674C144.037 36.6787 144.313 36.6065 144.504 36.4619C144.694 36.3176 144.789 36.1038 144.789 35.8203C144.789 35.5374 144.694 35.3219 144.504 35.1747C144.313 35.0274 144.037 34.9538 143.674 34.9538H142.17V36.6787ZM143.899 39.2877C144.694 39.2877 145.091 38.9871 145.091 38.3865C145.091 37.797 144.694 37.5023 143.899 37.5023H142.17V39.2877H143.899ZM151.458 36.1411C152.184 36.1411 152.741 36.3042 153.13 36.6309C153.519 36.9574 153.714 37.4413 153.714 38.0827C153.714 38.753 153.5 39.2662 153.074 39.6214C152.648 39.9769 152.048 40.1547 151.276 40.1547H148.674V34.0868H149.781V36.1414H151.458L151.458 36.1411ZM151.224 39.2877C151.662 39.2877 151.999 39.1867 152.236 38.9846C152.472 38.7823 152.59 38.4873 152.59 38.1003C152.59 37.3663 152.135 36.9993 151.224 36.9993H149.781V39.2875H151.224L151.224 39.2877ZM154.586 34.0868H155.693V40.1547H154.586V34.0868ZM158.567 34.0868H163.278V35.0145H159.673V36.5054H161.463C162.189 36.5054 162.741 36.657 163.118 36.9606C163.495 37.2639 163.684 37.7016 163.684 38.2737C163.684 38.8747 163.477 39.3387 163.062 39.6651C162.647 39.9914 162.056 40.1549 161.29 40.1549H158.567V34.087V34.0868ZM161.229 39.2877C161.662 39.2877 161.99 39.2039 162.215 39.0365C162.439 38.869 162.552 38.6262 162.552 38.3081C162.552 37.6842 162.111 37.372 161.229 37.372H159.673V39.2875H161.229L161.229 39.2877ZM168.875 40.2415C168.258 40.2415 167.702 40.1071 167.207 39.8384C166.711 39.5698 166.322 39.1971 166.04 38.7204C165.757 38.2433 165.616 37.7105 165.616 37.121C165.616 36.5315 165.757 35.9982 166.04 35.5215C166.322 35.0446 166.711 34.672 167.207 34.403C167.702 34.1346 168.258 34 168.875 34C169.491 34 170.048 34.1346 170.543 34.403C171.038 34.672 171.428 35.043 171.71 35.517C171.992 35.9912 172.133 36.5254 172.133 37.121C172.133 37.7161 171.992 38.2508 171.71 38.7245C171.428 39.1984 171.038 39.5698 170.543 39.8384C170.047 40.1071 169.491 40.2415 168.875 40.2415ZM168.875 39.2535C169.278 39.2535 169.641 39.1622 169.964 38.9803C170.287 38.7981 170.54 38.5439 170.724 38.2177C170.909 37.891 171.001 37.5256 171.001 37.1212C171.001 36.7163 170.909 36.3512 170.724 36.0245C170.54 35.698 170.286 35.4438 169.964 35.2617C169.641 35.0797 169.278 34.9887 168.875 34.9887C168.472 34.9887 168.108 35.0797 167.786 35.2617C167.463 35.4438 167.21 35.698 167.025 36.0245C166.841 36.3509 166.749 36.7163 166.749 37.1212C166.749 37.5256 166.841 37.8908 167.025 38.2177C167.21 38.5439 167.463 38.7981 167.786 38.9803C168.108 39.1622 168.472 39.2535 168.875 39.2535ZM177.03 34.087C177.555 34.087 178.011 34.174 178.4 34.3473C178.789 34.5204 179.087 34.7689 179.295 35.0929C179.502 35.4164 179.606 35.8006 179.606 36.2458C179.606 36.6849 179.502 37.068 179.295 37.3944C179.087 37.7207 178.789 37.9708 178.4 38.1443C178.011 38.3176 177.555 38.4044 177.03 38.4044H175.665V40.1554H174.541V34.0875H177.03V34.087ZM176.978 37.4506C177.468 37.4506 177.84 37.3464 178.093 37.1384C178.347 36.9302 178.473 36.6325 178.473 36.2456C178.473 35.8584 178.347 35.5607 178.093 35.3525C177.84 35.1445 177.468 35.0405 176.978 35.0405H175.665V37.4504H176.978V37.4506ZM186.897 34.087L184.269 38.9848C184.039 39.418 183.763 39.7433 183.444 39.9599C183.124 40.1767 182.777 40.2852 182.402 40.2852C182.103 40.2852 181.806 40.2215 181.512 40.0945L181.789 39.2105C182.025 39.2857 182.221 39.3228 182.376 39.3228C182.739 39.3228 183.039 39.1352 183.275 38.7594L183.37 38.6124L180.959 34.0872H182.16L183.95 37.6502L185.791 34.0872H186.897L186.897 34.087ZM198.129 35.0408H196.124V40.1549H195.009V35.0408H193.012V34.087H198.129V35.0408H198.129ZM204.798 39.2105V40.1552H200.26V34.0872H204.677V35.0322H201.384V36.6101H204.306V37.5376H201.384V39.2107H204.798V39.2105ZM207.845 34.0872L209.271 36.1158L210.697 34.0872H212.011L209.98 37L212.175 40.1552H210.844L209.271 37.9447L207.706 40.1552H206.41L208.597 37.0433L206.548 34.0872H207.845H207.845ZM219.467 34.0872V40.1552H218.343V37.5546H215.214V40.1552H214.09V34.0872H215.214V36.5924H218.343V34.0872H219.467ZM222.332 34.0872H223.438V38.3955L226.689 34.0872H227.734V40.1552H226.628V35.8557L223.378 40.1552H222.332V34.0872ZM232.822 37.5981H231.698V40.1552H230.591V34.0872H231.698V36.6271H232.856L234.594 34.0872H235.786L233.72 37.0256L235.864 40.1552H234.594L232.822 37.5981ZM237.805 34.0872H238.911V38.3955L242.161 34.0872H243.207V40.1552H242.1V35.8557L238.851 40.1552H237.805V34.0872Z" fill="#3F4866"/>
<path fill-rule="evenodd" clip-rule="evenodd" d="M47.1089 0.238157H0.76355L9.92847 13.9583L21.3856 13.9651L21.3849 41.4186H35.0728V13.9672C39.2917 13.9663 46.2769 13.9651 59.8927 13.9651V13.089C59.8927 6.03085 54.1431 0.254469 47.1091 0.23793V0.238157H47.1089Z" fill="#00BAF8"/>
<path fill-rule="evenodd" clip-rule="evenodd" d="M25.9011 0.238157L35.0733 13.9672C43.3466 13.9651 51.6194 13.9651 59.8927 13.9651V13.089C59.8927 6.03084 54.143 0.23793 47.1092 0.23793L25.9013 0.238157H25.9011Z" fill="#0092E0"/>
<path fill-rule="evenodd" clip-rule="evenodd" d="M70.3888 13.9651L79.5075 27.7508H79.4971H46.5161L48.6771 27.5611C54.9647 26.7542 59.8925 21.3579 59.8925 14.8414V13.9653C63.3912 13.9653 66.8899 13.9653 70.3888 13.9653V13.9651Z" fill="#00C7B0"/>
<path fill-rule="evenodd" clip-rule="evenodd" d="M66.9506 41.4186H48.239L39.1089 27.7505H57.8205L66.9506 41.4186Z" fill="#B340FF"/>
</g>
<defs>
<clipPath id="clip0_14_170">
<rect width="267" height="42" fill="white" transform="translate(0.5)"/>
</clipPath>
</defs>
</svg>
