<svg width="41" height="41" viewBox="0 0 41 41" fill="none" xmlns="http://www.w3.org/2000/svg">
<path d="M5 5H12C14.3 5 14.8 2 18 2C18.6 2 26 2 26 2" stroke="#446475" stroke-width="2" stroke-miterlimit="10"/>
<path d="M38 17.9998H33C31.9 17.9998 31 17.0998 31 15.9998V13.9998C31 12.8998 31.9 11.9998 33 11.9998H38C39.1 11.9998 40 12.8998 40 13.9998V15.9998C40 17.0998 39.1 17.9998 38 17.9998Z" stroke="#446475" stroke-width="2" stroke-miterlimit="10"/>
<path d="M37 23.9995H32C30.9 23.9995 30 23.0995 30 21.9995V19.9995C30 18.8995 30.9 17.9995 32 17.9995H37C38.1 17.9995 39 18.8995 39 19.9995V21.9995C39 23.0995 38.1 23.9995 37 23.9995Z" stroke="#446475" stroke-width="2" stroke-miterlimit="10"/>
<path d="M37 11.9998H32C30.9 11.9998 30 11.0998 30 9.99976V7.99976C30 6.89976 30.9 5.99976 32 5.99976H37C38.1 5.99976 39 6.89976 39 7.99976V9.99976C39 11.0998 38.1 11.9998 37 11.9998Z" stroke="#446475" stroke-width="2" stroke-miterlimit="10"/>
<path d="M35 5.99976H30C28.9 5.99976 28 5.09976 28 3.99976V2.99976C28 1.89976 28.9 0.999756 30 0.999756H35C36.1 0.999756 37 1.89976 37 2.99976V3.99976C37 5.09976 36.1 5.99976 35 5.99976Z" stroke="#446475" stroke-width="2" stroke-miterlimit="10"/>
<path d="M11 23.9995H1V1.99951H11V23.9995Z" fill="#E4E8EB" stroke="#446475" stroke-width="2" stroke-miterlimit="10"/>
<path d="M19.2 9.99968C23.9 11.7997 26.9 16.1997 27 20.9997C27 20.9997 27 25.3997 27 25.9997C27 26.6997 28 28.2997 28 31.5997C28 34.8997 27.4 36.0997 26 37.8997C24.6 39.6997 22 39.1997 22 37.3997V35.9997C22 31.9997 20.5 29.3997 17.9 26.3997L14 21.9997H12" stroke="#446475" stroke-width="2" stroke-miterlimit="10"/>
<path d="M6 21V17" stroke="#446475" stroke-width="2" stroke-miterlimit="10"/>
<path d="M5 5H12C14.3 5 14.8 2 18 2C18.6 2 26 2 26 2" stroke="#A0B4BE" stroke-width="2" stroke-miterlimit="10"/>
<path d="M38 17.9998H33C31.9 17.9998 31 17.0998 31 15.9998V13.9998C31 12.8998 31.9 11.9998 33 11.9998H38C39.1 11.9998 40 12.8998 40 13.9998V15.9998C40 17.0998 39.1 17.9998 38 17.9998Z" stroke="#A0B4BE" stroke-width="2" stroke-miterlimit="10"/>
<path d="M37 23.9995H32C30.9 23.9995 30 23.0995 30 21.9995V19.9995C30 18.8995 30.9 17.9995 32 17.9995H37C38.1 17.9995 39 18.8995 39 19.9995V21.9995C39 23.0995 38.1 23.9995 37 23.9995Z" stroke="#A0B4BE" stroke-width="2" stroke-miterlimit="10"/>
<path d="M37 11.9998H32C30.9 11.9998 30 11.0998 30 9.99976V7.99976C30 6.89976 30.9 5.99976 32 5.99976H37C38.1 5.99976 39 6.89976 39 7.99976V9.99976C39 11.0998 38.1 11.9998 37 11.9998Z" stroke="#A0B4BE" stroke-width="2" stroke-miterlimit="10"/>
<path d="M35 5.99976H30C28.9 5.99976 28 5.09976 28 3.99976V2.99976C28 1.89976 28.9 0.999756 30 0.999756H35C36.1 0.999756 37 1.89976 37 2.99976V3.99976C37 5.09976 36.1 5.99976 35 5.99976Z" stroke="#A0B4BE" stroke-width="2" stroke-miterlimit="10"/>
<path d="M11 23.9995H1V1.99951H11V23.9995Z" fill="#F1F3F3" stroke="#A0B4BE" stroke-width="2" stroke-miterlimit="10"/>
<path d="M19.2 9.99968C23.9 11.7997 26.9 16.1997 27 20.9997C27 20.9997 27 25.3997 27 25.9997C27 26.6997 28 28.2997 28 31.5997C28 34.8997 27.4 36.0997 26 37.8997C24.6 39.6997 22 39.1997 22 37.3997V35.9997C22 31.9997 20.5 29.3997 17.9 26.3997L14 21.9997H12" stroke="#A0B4BE" stroke-width="2" stroke-miterlimit="10"/>
<path d="M6 21V17" stroke="#A0B4BE" stroke-width="2" stroke-miterlimit="10"/>
</svg>
