<svg width="41" height="41" viewBox="0 0 41 41" fill="none" xmlns="http://www.w3.org/2000/svg">
<path d="M5 35.0254H12C14.3 35.0254 14.8 38.0254 18 38.0254C18.6 38.0254 26 38.0254 26 38.0254" stroke="#A0B4BE" stroke-width="2" stroke-miterlimit="10"/>
<path d="M38 22.0256H33C31.9 22.0256 31 22.9256 31 24.0256V26.0256C31 27.1256 31.9 28.0256 33 28.0256H38C39.1 28.0256 40 27.1256 40 26.0256V24.0256C40 22.9256 39.1 22.0256 38 22.0256Z" stroke="#A0B4BE" stroke-width="2" stroke-miterlimit="10"/>
<path d="M37 16.0259H32C30.9 16.0259 30 16.9259 30 18.0259V20.0259C30 21.1259 30.9 22.0259 32 22.0259H37C38.1 22.0259 39 21.1259 39 20.0259V18.0259C39 16.9259 38.1 16.0259 37 16.0259Z" stroke="#A0B4BE" stroke-width="2" stroke-miterlimit="10"/>
<path d="M37 28.0256H32C30.9 28.0256 30 28.9256 30 30.0256V32.0256C30 33.1256 30.9 34.0256 32 34.0256H37C38.1 34.0256 39 33.1256 39 32.0256V30.0256C39 28.9256 38.1 28.0256 37 28.0256Z" stroke="#A0B4BE" stroke-width="2" stroke-miterlimit="10"/>
<path d="M35 34.0256H30C28.9 34.0256 28 34.9256 28 36.0256V37.0256C28 38.1256 28.9 39.0256 30 39.0256H35C36.1 39.0256 37 38.1256 37 37.0256V36.0256C37 34.9256 36.1 34.0256 35 34.0256Z" stroke="#A0B4BE" stroke-width="2" stroke-miterlimit="10"/>
<path d="M11 16.0259H1V38.0259H11V16.0259Z" fill="#F1F3F3" stroke="#A0B4BE" stroke-width="2" stroke-miterlimit="10"/>
<path d="M19.2 30.0257C23.9 28.2257 26.9 23.8257 27 19.0257C27 19.0257 27 14.6257 27 14.0257C27 13.3257 28 11.7257 28 8.42572C28 5.12572 27.4 3.92572 26 2.12572C24.6 0.325716 22 0.825716 22 2.62572V4.02572C22 8.02572 20.5 10.6257 17.9 13.6257L14 18.0257H12" stroke="#A0B4BE" stroke-width="2" stroke-miterlimit="10"/>
<path d="M6 19.0254V23.0254" stroke="#A0B4BE" stroke-width="2" stroke-miterlimit="10"/>
</svg>
